HIERARCHY
ROOT RootJoint
{
    OFFSET   0.000000   0.000000   0.000000
    CHANNELS 6 Xposition Yposition Zposition Xrotation Yrotation Zrotation
    JOINT pelvis_lowerback
    {
        OFFSET   0.000000   0.093605   0.000000
        CHANNELS 3 Xrotation Yrotation Zrotation
        JOINT lowerback_torso
        {
            OFFSET   0.000000   0.100000   0.000000
            CHANNELS 3 Xrotation Yrotation Zrotation
            JOINT torso_head
            {
                OFFSET   0.000000   0.282350   0.000000
                CHANNELS 3 Xrotation Yrotation Zrotation
                End Site
                {
                    OFFSET   0.000000   0.192650   0.000000
                }
            }
            JOINT rTorso_Clavicle
            {
                OFFSET  -0.001000   0.157500   0.000000
                CHANNELS 3 Xrotation Yrotation Zrotation
                JOINT rShoulder
                {
                    OFFSET  -0.117647   0.000000   0.000000
                    CHANNELS 3 Xrotation Yrotation Zrotation
                    JOINT rElbow
                    {
                        OFFSET  -0.245000   0.000000   0.000000
                        CHANNELS 3 Xrotation Yrotation Zrotation
                        JOINT rWrist
                        {
                            OFFSET  -0.240000   0.000000   0.000000
                            CHANNELS 3 Xrotation Yrotation Zrotation
                            End Site
                            {
                                OFFSET  -0.116353  -0.002500   0.000000
                            }
                        }
                    }
                }
            }
            JOINT lTorso_Clavicle
            {
                OFFSET   0.001000   0.157500   0.000000
                CHANNELS 3 Xrotation Yrotation Zrotation
                JOINT lShoulder
                {
                    OFFSET   0.117647   0.000000   0.000000
                    CHANNELS 3 Xrotation Yrotation Zrotation
                    JOINT lElbow
                    {
                        OFFSET   0.245000   0.000000   0.000000
                        CHANNELS 3 Xrotation Yrotation Zrotation
                        JOINT lWrist
                        {
                            OFFSET   0.240000   0.000000   0.000000
                            CHANNELS 3 Xrotation Yrotation Zrotation
                            End Site
                            {
                                OFFSET   0.116353  -0.002500   0.000000
                            }
                        }
                    }
                }
            }
        }
    }
    JOINT rHip
    {
        OFFSET  -0.100000  -0.051395   0.000000
        CHANNELS 3 Xrotation Yrotation Zrotation
        JOINT rKnee
        {
            OFFSET   0.000000  -0.410000   0.000000
            CHANNELS 3 Xrotation Yrotation Zrotation
            JOINT rAnkle
            {
                OFFSET   0.000000  -0.390000   0.000000
                CHANNELS 3 Xrotation Yrotation Zrotation
                JOINT rToeJoint
                {
                    OFFSET   0.000000  -0.050000   0.130000
                    CHANNELS 3 Xrotation Yrotation Zrotation
                    End Site
                    {
                        OFFSET  -0.010000   0.002000   0.060000
                    }
                }
            }
        }
    }
    JOINT lHip
    {
        OFFSET   0.100000  -0.051395   0.000000
        CHANNELS 3 Xrotation Yrotation Zrotation
        JOINT lKnee
        {
            OFFSET   0.000000  -0.410000   0.000000
            CHANNELS 3 Xrotation Yrotation Zrotation
            JOINT lAnkle
            {
                OFFSET   0.000000  -0.390000   0.000000
                CHANNELS 3 Xrotation Yrotation Zrotation
                JOINT lToeJoint
                {
                    OFFSET   0.000000  -0.050000   0.130000
                    CHANNELS 3 Xrotation Yrotation Zrotation
                    End Site
                    {
                        OFFSET   0.010000   0.002000   0.060000
                    }
                }
            }
        }
    }
}
MOTION
Frames: 15
Frame Time:   0.008333
 -2.376719   0.925631   3.975860   0.000000   0.000000   0.000000   0.000000   0.000000   0.000000   0.000000   0.000000   0.000000   0.000000   0.000000   0.000000   0.000000   0.000000   0.000000   0.000000   0.000000   0.000000   0.000000   0.000000   0.000000   0.000000   0.000000   0.000000   0.000000   0.000000   0.000000   0.000000   0.000000   0.000000   0.000000   0.000000   0.000000   0.000000   0.000000   0.000000   0.000000   0.000000   0.000000   0.000000   0.000000   0.000000   0.000000   0.000000   0.000000   0.000000   0.000000   0.000000   0.000000   0.000000   0.000000   0.000000   0.000000   0.000000   0.000000   0.000000   0.000000   0.000000   0.000000   0.000000
 -2.376802   0.925646   3.974665   0.335161   0.080461  -0.086226   0.016543   0.275706   0.111735  -0.191932  -0.339230  -0.082990  -0.326780  -0.112744   0.199793  -0.017437  -0.750264  -0.503195  -0.306109   0.011722   2.590680   0.063655   3.601028   0.003549   0.047065  -1.335480  -2.381244   0.208723   0.698456   0.531657   0.973143   0.725487  -2.426500   0.065763  -3.781470   0.045493   0.020220   0.651557   2.280560  -0.954859   0.158820   0.102544   2.821773  -0.000257   0.005937  -3.180532  -0.179229   0.142517  -0.113767   0.000166  -0.000062  -1.830950  -0.026518   0.117660   3.033169  -0.000841   0.001534  -1.304257  -0.008914   0.047113   0.023468  -0.000017   0.000010
 -2.376925   0.925673   3.973847   0.523260   0.094679  -0.191346   0.048780   0.634954   0.224811  -0.318154  -0.595686  -0.147889  -0.600797  -0.226832   0.393912  -0.033863  -1.445608  -0.473890  -0.625576   0.092589   5.601951   0.146714   7.312246   0.009022   0.096771  -1.746660  -4.143065   0.408975   1.430368   0.556914   1.961434   1.410885  -5.260127   0.156121  -7.642450   0.079759   0.112939   0.447760   4.049881  -1.494728   0.320617   0.227426   6.003517  -0.000045   0.009770  -6.153356  -0.350578   0.270600  -0.346981   0.000443  -0.000064  -3.766983  -0.049039   0.267789   6.124952  -0.001858   0.001456  -2.501698  -0.016325   0.092428   0.080255  -0.000059   0.000006
 -2.377007   0.925396   3.973367   0.658519   0.025099  -0.294312   0.039253   1.058797   0.335416  -0.445736  -0.751011  -0.193164  -0.850852  -0.333788   0.570073  -0.037275  -2.048609  -0.061791  -0.942520   0.194624   8.784996   0.231256  11.042901   0.016281   0.142840  -1.889794  -5.228966   0.596215   2.146666   0.238240   2.971174   2.065995  -8.362325   0.252754 -11.499590   0.102375   0.215810   0.104000   5.231267  -1.706788   0.471746   0.342711   9.301197   0.000512   0.010278  -8.920048  -0.516148   0.385070  -0.543288   0.000561   0.000094  -5.778712  -0.073374   0.420429   8.988472  -0.002806  -0.000409  -3.617515  -0.023798   0.135506   0.139465  -0.000095  -0.000035
 -2.377036   0.924572   3.973139   0.777550  -0.112671  -0.388425  -0.017162   1.537708   0.443690  -0.593651  -0.811441  -0.230089  -1.088404  -0.434378   0.733975  -0.020191  -2.576235   0.622040  -1.242075   0.295335  11.978976   0.307554  14.780135   0.023763   0.176186  -1.952777  -5.770231   0.780970   2.860462  -0.356259   3.958105   2.657761 -11.497934   0.342487 -15.341948   0.114414   0.305584  -0.195217   5.860675  -1.622166   0.612301   0.437172  12.505146   0.000996   0.008307 -11.495464  -0.676330   0.486341  -0.708071   0.000574   0.000311  -7.869973  -0.102227   0.569275  11.600526  -0.003762  -0.003097  -4.661280  -0.031795   0.176027   0.185720  -0.000115  -0.000084
 -2.377014   0.923013   3.973061   0.888709  -0.312071  -0.472950  -0.106559   2.065914   0.549866  -0.757744  -0.786065  -0.260745  -1.316472  -0.528646   0.886502   0.019068  -3.038551   1.470570  -1.520808   0.390582  15.114196   0.371492  18.519476   0.030096   0.196053  -1.994896  -5.933745   0.969560   3.571979  -1.121095   4.923240   3.188437 -14.590049   0.419374 -19.168805   0.118812   0.374144  -0.411286   6.095547  -1.294899   0.745037   0.507389  15.584168   0.001131   0.004739 -13.895621  -0.830601   0.575458  -0.854197   0.000528   0.000547 -10.027916  -0.135943   0.716177  13.975245  -0.004758  -0.006071  -5.638112  -0.040071   0.214070   0.219720  -0.000121  -0.000124
 -2.376947   0.920587   3.973054   0.992528  -0.559712  -0.548454  -0.215096   2.634553   0.654228  -0.927932  -0.685731  -0.285432  -1.535035  -0.616984   1.028400   0.078501  -3.441060   2.408118  -1.778278   0.481480  18.145997   0.422003  22.260028   0.034311   0.205177  -2.032823  -5.847374   1.166559   4.277783  -1.980518   5.866755   3.661180 -17.592501   0.481066 -22.981200   0.117883   0.421710  -0.541197   6.064394  -0.769465   0.871357   0.552381  18.532038   0.000835   0.000462 -16.133170  -0.978617   0.653362  -0.985712   0.000449   0.000771 -12.234718  -0.175567   0.863458  16.131967  -0.005752  -0.008855  -6.552186  -0.048510   0.249681   0.244340  -0.000119  -0.000150
 -2.376424   0.916811   3.972539   1.294481  -0.895556  -0.270416  -0.357186   3.392069   0.438476  -1.088669  -0.632422  -0.368562  -2.044881  -0.806161   0.933330   0.189290  -3.772586   2.649513  -1.681432   0.827289  21.193448   0.446978  25.967284   0.014727   0.188509  -2.253325  -5.053179   1.498571   5.203874  -2.206352   6.717334   3.726057 -20.532414   0.510117 -26.779886   0.119351   0.397919  -0.701840   5.210988   0.210525   0.926599   0.103006  19.174928   0.000983  -0.001446 -17.704813  -1.379096   0.675157  -0.842578   0.000542  -0.000251 -14.785102  -0.078971   0.593046  18.219310  -0.005009  -0.011870  -6.738181  -0.006076   0.416570   0.209746  -0.000053  -0.000051
 -2.375764   0.911802   3.971392   1.635955  -1.421444   0.074898  -0.388601   4.249099   0.196253  -1.210356  -0.458521  -0.500182  -2.545068  -0.985396   0.818600   0.267962  -3.968235   2.652265  -1.638149   1.238509  23.896233   0.453952  29.704204  -0.008727   0.199173  -2.383350  -4.343971   1.810722   6.081118  -2.221058   7.508485   3.761104 -23.146885   0.517233 -30.583027   0.120945   0.376928  -0.879796   4.446705   1.145454   0.984452  -0.466662  19.461296   0.000884  -0.002411 -19.185310  -1.759263   0.682865  -0.703472   0.000680  -0.001222 -17.410403   0.043117   0.290869  20.119730  -0.004998  -0.017181  -6.905358   0.033235   0.571804   0.220543  -0.000055  -0.000081
 -2.375086   0.905664   3.969845   1.961362  -2.018927   0.424349  -0.319981   5.129621  -0.043832  -1.264400  -0.210259  -0.642349  -3.004259  -1.151805   0.707966   0.305345  -4.065196   2.495962  -1.652283   1.688076  26.306558   0.451235  33.468134  -0.034194   0.234290  -2.376304  -3.864513   2.097265   6.902636  -2.107084   8.239084   3.772646 -25.492101   0.510866 -34.386678   0.122323   0.360060  -1.055074   3.889563   2.045353   1.029211  -1.058101  19.666489   0.000748  -0.002949 -20.570697  -2.115990   0.680002  -0.579469   0.000792  -0.001933 -20.018956   0.162650   0.028365  21.838673  -0.005569  -0.022038  -7.063072   0.068120   0.716578   0.229037  -0.000055  -0.000104
 -2.374437   0.898487   3.968084   2.262490  -2.614532   0.763764  -0.180917   6.000411  -0.281663  -1.262469   0.076105  -0.786152  -3.421463  -1.306445   0.604556   0.308688  -4.098427   2.234298  -1.713259   2.149628  28.474415   0.444152  37.251651  -0.060493   0.286674  -2.260260  -3.580312   2.358703   7.670671  -1.909615   8.913168   3.765524 -27.612155   0.496239 -38.186614   0.122676   0.346920  -1.226202   3.501482   2.925855   1.060023  -1.638239  19.845796   0.000622  -0.003242 -21.864702  -2.449574   0.668224  -0.465429   0.000871  -0.002396 -22.577325   0.278253  -0.190092  23.395126  -0.006278  -0.025282  -7.211911   0.099677   0.851841   0.235286  -0.000052  -0.000112
 -2.373713   0.891751   3.966485   2.665483  -3.257003   1.313941  -0.101975   6.872372  -0.678986  -1.273778   0.399576  -1.009737  -3.801990  -1.448514   0.501060   0.298526  -4.095912   2.015050  -1.798740   2.601766  30.491390   0.438971  41.043021  -0.084351   0.351662  -2.081062  -3.416223   2.598987   8.402384  -1.733111   9.536987   3.746256 -29.563764   0.474592 -41.729979   0.119054   0.342123  -1.428541   3.248261   3.686728   1.099406  -2.408808  19.965918   0.000486  -0.003189 -23.069216  -2.761888   0.648372  -0.332824   0.000964  -0.002891 -24.715729   0.493340  -0.633405  26.406806  -0.007491  -0.036869  -6.724892   0.155662   0.935950   0.097796   0.000013   0.000650
 -2.373131   0.885476   3.964449   3.191343  -3.688985   1.903771  -0.012321   7.638235  -1.089270  -1.313753   0.674301  -1.266208  -4.170150  -1.582894   0.395709   0.278900  -4.072727   1.791076  -1.902233   3.035946  32.359871   0.438858  44.838910  -0.112011   0.416260  -1.876965  -3.319500   2.806421   9.049616  -1.573965  10.104659   3.685573 -31.382612   0.449164 -45.044061   0.115022   0.337704  -1.652438   3.039290   4.298101   1.121776  -3.114428  20.044648   0.000376  -0.002787 -24.193739  -3.054325   0.620518  -0.204128   0.000936  -0.003007 -26.720333   0.688168  -1.131500  28.868174  -0.008329  -0.040204  -6.505240   0.192127   1.033088   0.166205  -0.000036   0.000223
 -2.372448   0.880838   3.962299   3.893701  -4.305956   2.773407  -0.018915   8.469683  -1.807403  -1.335369   0.967950  -1.561934  -4.372779  -1.782787   0.375244   0.292038  -3.950787   1.323903  -1.727363   3.640742  34.190570   0.449415  48.627709  -0.159757   0.351425  -1.669536  -2.910933   3.010856   9.767856  -1.137850  10.479958   3.713782 -33.101856   0.418147 -48.596634   0.104227   0.230745  -1.580124   2.301249   4.526730   1.204351  -3.953824  18.297333   0.003266   0.003912 -22.295644  -3.647979   0.755800 -17.770324  -0.009139   0.158675 -28.262211   1.043006  -1.833527  30.219704  -0.008250  -0.039974  -6.494150   0.192904   1.129318   0.119415   0.000003   0.000459
 -2.371904   0.880939   3.961437   4.575197  -4.771715   2.896969  -0.191732   9.203348  -1.883459  -1.406281   1.209143  -1.617980  -4.545881  -1.975297   0.365604   0.346200  -3.895323   0.945593  -1.538253   4.160741  35.867005   0.464707  52.368721  -0.199176   0.294905  -1.606412  -2.474138   3.207023  10.473102  -0.891452  10.844886   3.729819 -34.768045   0.385711 -51.914879   0.088355   0.135278  -1.562010   1.559812   4.538000   1.133314  -4.040562  16.797700   0.004992   0.009496 -23.090589  -4.362053   0.895300 -16.148819  -0.001166   0.109836 -29.268632   1.183180  -1.880329  30.700147  -0.006810  -0.033641  -6.735422   0.172466   1.257031   0.102178   0.000012   0.000431
